<?xml version="1.0" encoding="UTF-8"?>
<!DOCTYPE svg PUBLIC "-//W3C//DTD SVG 1.1//EN" "http://www.w3.org/Graphics/SVG/1.1/DTD/svg11.dtd">
<svg xmlns="http://www.w3.org/2000/svg" version="1.1" width="117px" height="118px" style="shape-rendering:geometricPrecision; text-rendering:geometricPrecision; image-rendering:optimizeQuality; fill-rule:evenodd; clip-rule:evenodd" xmlns:xlink="http://www.w3.org/1999/xlink">
<g><path style="opacity:0.811" fill="#3a1e16" d="M 55.5,3.5 C 56.7647,4.51448 57.4313,6.01448 57.5,8C 57.5771,10.0507 57.0771,11.884 56,13.5C 55.5017,10.1832 55.335,6.8499 55.5,3.5 Z"/></g>
<g><path style="opacity:0.682" fill="#3a1d15" d="M 40.5,5.5 C 41.7498,5.57735 42.5831,6.24402 43,7.5C 44.0391,9.90093 44.2058,12.2343 43.5,14.5C 41.4409,11.9618 40.4409,8.96184 40.5,5.5 Z"/></g>
<g><path style="opacity:0.699" fill="#391e15" d="M 70.5,5.5 C 71.4972,5.47008 72.1639,5.97008 72.5,7C 72.026,9.74916 71.026,12.2492 69.5,14.5C 68.6736,11.4376 69.007,8.43764 70.5,5.5 Z"/></g>
<g><path style="opacity:0.736" fill="#3a1e15" d="M 26.5,11.5 C 29.1627,13.0886 31.1627,15.4219 32.5,18.5C 32.1667,18.8333 31.8333,19.1667 31.5,19.5C 28.8066,17.4408 27.1399,14.7741 26.5,11.5 Z"/></g>
<g><path style="opacity:0.709" fill="#391e15" d="M 84.5,11.5 C 85.3764,11.3691 86.0431,11.7025 86.5,12.5C 85.1891,15.1354 83.5224,17.4687 81.5,19.5C 80.4173,18.635 80.2506,17.635 81,16.5C 82.1764,14.8043 83.343,13.1376 84.5,11.5 Z"/></g>
<g><path style="opacity:0.681" fill="#3a1e15" d="M 15.5,23.5 C 18.7568,24.4617 21.7568,25.9617 24.5,28C 24,28.5 23.5,29 23,29.5C 20.913,28.2062 18.7463,27.0395 16.5,26C 15.7476,25.3292 15.4142,24.4959 15.5,23.5 Z"/></g>
<g><path style="opacity:0.779" fill="#3b1e15" d="M 95.5,23.5 C 97.3547,23.272 98.1881,23.9387 98,25.5C 95.5794,26.9606 93.0794,28.2939 90.5,29.5C 89.1667,28.5 89.1667,27.5 90.5,26.5C 92.3964,25.7255 94.063,24.7255 95.5,23.5 Z"/></g>
<g><path style="opacity:1" fill="#76b427" d="M 66.5,42.5 C 67.3414,37.4678 68.3414,32.4678 69.5,27.5C 70.6499,26.1498 71.3166,26.3164 71.5,28C 70.3864,33.1828 69.2198,38.3494 68,43.5C 67.6174,42.944 67.1174,42.6107 66.5,42.5 Z"/></g>
<g><path style="opacity:1" fill="#7bc028" d="M 113.5,40.5 C 115.684,54.3234 109.684,60.9901 95.5,60.5C 96.1223,58.665 97.4556,57.4983 99.5,57C 102.553,56.8214 105.553,56.3214 108.5,55.5C 104.834,54.5887 101.168,54.422 97.5,55C 98.2567,53.4878 99.2567,52.1545 100.5,51C 103.818,50.1208 107.152,49.2875 110.5,48.5C 107.833,48.1667 105.167,47.8333 102.5,47.5C 103.833,45.5 105.5,43.8333 107.5,42.5C 107.167,42.1667 106.833,41.8333 106.5,41.5C 104.517,42.982 102.684,44.6487 101,46.5C 100.667,44.1667 100.333,41.8333 100,39.5C 100.038,44.9235 98.7045,49.9235 96,54.5C 96.7636,49.2469 97.597,43.9136 98.5,38.5C 104.13,35.3277 109.13,35.9944 113.5,40.5 Z"/></g>
<g><path style="opacity:0.8" fill="#3e2118" d="M 69.5,24.5 C 69.5,25.5 69.5,26.5 69.5,27.5C 68.3414,32.4678 67.3414,37.4678 66.5,42.5C 65.8333,42.5 65.1667,42.5 64.5,42.5C 63.2233,41.1024 61.5566,40.4357 59.5,40.5C 56.8984,40.4672 54.8984,41.4672 53.5,43.5C 51.4525,45.5496 49.7859,47.883 48.5,50.5C 47.8333,50.5 47.1667,50.5 46.5,50.5C 46.5,49.1667 45.8333,48.5 44.5,48.5C 44.9452,51.3646 44.2785,53.8646 42.5,56C 43.2524,56.6708 43.5858,57.5041 43.5,58.5C 42.8333,58.5 42.1667,58.5 41.5,58.5C 41.5,58.1667 41.5,57.8333 41.5,57.5C 39.8333,56.8333 38.1667,56.1667 36.5,55.5C 41.0001,55.8362 42.8334,53.8362 42,49.5C 38.7924,45.5993 35.6257,45.5993 32.5,49.5C 32.5,49.1667 32.5,48.8333 32.5,48.5C 31.7565,44.0027 29.7565,40.336 26.5,37.5C 25.8333,37.5 25.1667,37.5 24.5,37.5C 26.6248,35.1817 29.2914,34.3484 32.5,35C 34.1274,37.7542 35.6274,40.5875 37,43.5C 38.0852,44.2931 39.2519,44.9598 40.5,45.5C 40.6663,38.8285 43.9996,35.9951 50.5,37C 52,37.8333 53.1667,39 54,40.5C 57.0158,38.5284 60.1825,38.195 63.5,39.5C 64.086,39.2907 64.586,38.9574 65,38.5C 66.2122,33.6196 67.7122,28.9529 69.5,24.5 Z"/></g>
<g><path style="opacity:1" fill="#76b427" d="M 29.5,36.5 C 30.3764,36.3691 31.0431,36.7025 31.5,37.5C 32.7061,40.0794 34.0394,42.5794 35.5,45C 34.5509,45.6172 33.7175,45.4506 33,44.5C 31.5462,41.9289 30.3795,39.2622 29.5,36.5 Z"/></g>
<g><path style="opacity:0.962" fill="#47331d" d="M 113.5,38.5 C 113.5,39.1667 113.5,39.8333 113.5,40.5C 109.13,35.9944 104.13,35.3277 98.5,38.5C 97.597,43.9136 96.7636,49.2469 96,54.5C 98.7045,49.9235 100.038,44.9235 100,39.5C 100.333,41.8333 100.667,44.1667 101,46.5C 102.684,44.6487 104.517,42.982 106.5,41.5C 106.833,41.8333 107.167,42.1667 107.5,42.5C 105.5,43.8333 103.833,45.5 102.5,47.5C 105.167,47.8333 107.833,48.1667 110.5,48.5C 107.152,49.2875 103.818,50.1208 100.5,51C 99.2567,52.1545 98.2567,53.4878 97.5,55C 101.168,54.422 104.834,54.5887 108.5,55.5C 105.553,56.3214 102.553,56.8214 99.5,57C 97.4556,57.4983 96.1223,58.665 95.5,60.5C 99.5,61.1667 103.5,61.8333 107.5,62.5C 100.137,62.1694 92.8032,62.5027 85.5,63.5C 79.1129,70.8579 71.4463,72.8579 62.5,69.5C 60.1459,67.7539 59.1459,65.4206 59.5,62.5C 41.1667,62.5 22.8333,62.5 4.5,62.5C 4.16667,62.5 3.83333,62.5 3.5,62.5C 3.57735,61.2502 4.24402,60.4169 5.5,60C 0.846611,52.289 2.51328,46.289 10.5,42C 13.1667,41.6667 15.8333,41.3333 18.5,41C 20.1591,39.1585 22.1591,37.9919 24.5,37.5C 25.1667,37.5 25.8333,37.5 26.5,37.5C 27.2435,41.9973 29.2435,45.664 32.5,48.5C 32.5,48.8333 32.5,49.1667 32.5,49.5C 32.3746,52.6082 33.7079,54.6082 36.5,55.5C 38.1667,56.1667 39.8333,56.8333 41.5,57.5C 38.9882,58.2162 38.9882,59.2162 41.5,60.5C 42.463,60.0302 42.463,59.3635 41.5,58.5C 42.1667,58.5 42.8333,58.5 43.5,58.5C 44.7949,56.0209 45.7949,53.3542 46.5,50.5C 47.1667,50.5 47.8333,50.5 48.5,50.5C 47.3507,53.4223 46.3507,56.4223 45.5,59.5C 46.6888,60.4287 48.0222,60.762 49.5,60.5C 47.6905,54.4274 49.3572,49.5941 54.5,46C 53.7476,45.3292 53.4142,44.4959 53.5,43.5C 55.0481,43.8212 55.7148,44.8212 55.5,46.5C 57.1992,46.6602 58.8659,46.4935 60.5,46C 61.7051,44.6244 63.0384,43.4577 64.5,42.5C 63.7974,44.7157 62.4641,46.549 60.5,48C 61.9783,50.0386 63.9783,50.8719 66.5,50.5C 67.6303,47.8033 67.6303,45.1367 66.5,42.5C 67.1174,42.6107 67.6174,42.944 68,43.5C 69.2198,38.3494 70.3864,33.1828 71.5,28C 71.3166,26.3164 70.6499,26.1498 69.5,27.5C 69.5,26.5 69.5,25.5 69.5,24.5C 74.2781,23.3568 78.9448,23.8568 83.5,26C 84.2911,28.7499 84.2911,31.5832 83.5,34.5C 87.9325,34.3658 92.0991,35.3658 96,37.5C 100.162,34.834 104.662,34.0007 109.5,35C 111.324,35.66 112.657,36.8267 113.5,38.5 Z M 44.5,48.5 C 45.8333,48.5 46.5,49.1667 46.5,50.5C 45.7949,53.3542 44.7949,56.0209 43.5,58.5C 43.5858,57.5041 43.2524,56.6708 42.5,56C 44.2785,53.8646 44.9452,51.3646 44.5,48.5 Z"/></g>
<g><path style="opacity:1" fill="#7bc028" d="M 93.5,52.5 C 94.6291,54.6282 94.7958,56.9615 94,59.5C 92.2739,60.5762 90.4406,60.7429 88.5,60C 87.4829,58.9505 87.3162,57.7839 88,56.5C 90.167,55.5119 92.0003,54.1786 93.5,52.5 Z"/></g>
<g><path style="opacity:1" fill="#dd75b9" d="M 54.5,47.5 C 60.5006,47.7414 61.8339,50.2414 58.5,55C 53.5023,56.3297 51.3357,54.4964 52,49.5C 52.9947,48.9341 53.828,48.2674 54.5,47.5 Z"/></g>
<g><path style="opacity:1" fill="#dd75b9" d="M 36.5,55.5 C 33.7079,54.6082 32.3746,52.6082 32.5,49.5C 35.6257,45.5993 38.7924,45.5993 42,49.5C 42.8334,53.8362 41.0001,55.8362 36.5,55.5 Z"/></g>
<g><path style="opacity:1" fill="#78b727" d="M 23.5,39.5 C 24.3764,39.3691 25.0431,39.7025 25.5,40.5C 28.773,46.7122 31.773,53.0456 34.5,59.5C 33.675,60.3857 32.675,60.719 31.5,60.5C 29.111,53.3896 26.4443,46.3896 23.5,39.5 Z"/></g>
<g><path style="opacity:1" fill="#78b727" d="M 64.5,42.5 C 65.1667,42.5 65.8333,42.5 66.5,42.5C 67.6303,45.1367 67.6303,47.8033 66.5,50.5C 63.9783,50.8719 61.9783,50.0386 60.5,48C 62.4641,46.549 63.7974,44.7157 64.5,42.5 Z"/></g>
<g><path style="opacity:1" fill="#6c9924" d="M 20.5,41.5 C 22.4459,42.2544 23.2793,43.5878 23,45.5C 21.5187,44.5291 20.6854,43.1958 20.5,41.5 Z"/></g>
<g><path style="opacity:1" fill="#7bbf28" d="M 10.5,43.5 C 22.1477,43.1447 28.4811,48.8114 29.5,60.5C 27.8333,60.5 26.1667,60.5 24.5,60.5C 25.2631,57.8589 25.4298,55.1922 25,52.5C 24.0266,54.3921 23.3599,56.3921 23,58.5C 22.6667,58.1667 22.3333,57.8333 22,57.5C 21.0858,53.8582 20.2525,50.1915 19.5,46.5C 18.7022,48.0777 18.2022,49.7444 18,51.5C 16.9586,49.4148 15.4586,47.7481 13.5,46.5C 12.4063,47.868 12.7397,49.0347 14.5,50C 12.4132,49.7821 10.4132,49.9488 8.5,50.5C 12.9422,51.8871 16.9422,54.0538 20.5,57C 17.8895,57.224 15.3895,56.724 13,55.5C 12.8333,55.8333 12.6667,56.1667 12.5,56.5C 15.4322,57.8175 18.4322,58.9842 21.5,60C 17.1667,60.6667 12.8333,60.6667 8.5,60C 2.79864,53.7109 3.4653,48.2109 10.5,43.5 Z"/></g>
<g><path style="opacity:1" fill="#7abd28" d="M 64.5,42.5 C 63.0384,43.4577 61.7051,44.6244 60.5,46C 58.8659,46.4935 57.1992,46.6602 55.5,46.5C 55.7148,44.8212 55.0481,43.8212 53.5,43.5C 54.8984,41.4672 56.8984,40.4672 59.5,40.5C 61.5566,40.4357 63.2233,41.1024 64.5,42.5 Z"/></g>
<g><path style="opacity:1" fill="#dd75b9" d="M 45.5,38.5 C 51.704,38.3137 53.0374,40.8137 49.5,46C 43.2016,46.4954 41.8682,43.9954 45.5,38.5 Z"/></g>
<g><path style="opacity:1" fill="#75b227" d="M 26.5,37.5 C 29.7565,40.336 31.7565,44.0027 32.5,48.5C 29.2435,45.664 27.2435,41.9973 26.5,37.5 Z"/></g>
<g><path style="opacity:1" fill="#f4f2f2" d="M 81.5,36.5 C 85.7924,36.0349 89.7924,36.8682 93.5,39C 96.9607,41.9873 97.4607,45.4873 95,49.5C 88.0135,56.4334 79.8468,58.2667 70.5,55C 66.8132,51.804 66.6466,48.304 70,44.5C 73.1496,40.6893 76.983,38.0226 81.5,36.5 Z"/></g>
<g><path style="opacity:1" fill="#51382b" d="M 79.5,40.5 C 82.5184,40.3354 85.5184,40.502 88.5,41C 90.2112,42.1332 90.7112,43.6332 90,45.5C 86.2052,50.0979 81.3719,51.9312 75.5,51C 73.7888,49.8668 73.2888,48.3668 74,46.5C 75.3597,43.9774 77.193,41.9774 79.5,40.5 Z"/></g>
<g><path style="opacity:1" fill="#eeea83" d="M 81.5,41.5 C 83.5273,41.3379 85.5273,41.5045 87.5,42C 88.3957,45.8179 86.729,48.1512 82.5,49C 80.1902,49.4966 77.8568,49.6633 75.5,49.5C 75.3433,48.1266 75.51,46.7932 76,45.5C 77.8121,44.0229 79.6455,42.6896 81.5,41.5 Z"/></g>
<g><path style="opacity:1" fill="#74ad26" d="M 73.5,25.5 C 74.4482,30.9585 73.6148,36.2918 71,41.5C 71.249,36.0861 72.0823,30.7528 73.5,25.5 Z"/></g>
<g><path style="opacity:1" fill="#74ad26" d="M 79.5,27.5 C 80.675,27.281 81.675,27.6143 82.5,28.5C 81.8108,30.444 81.3108,32.444 81,34.5C 80.2747,36.158 79.108,36.658 77.5,36C 78.713,33.3135 79.3797,30.4802 79.5,27.5 Z"/></g>
<g><path style="opacity:1" fill="#74ae26" d="M 76.5,26.5 C 77.5862,26.62 78.2528,27.2867 78.5,28.5C 77.6321,31.9899 76.4655,35.3233 75,38.5C 74.7793,34.4296 75.2793,30.4296 76.5,26.5 Z"/></g>
<g><path style="opacity:1" fill="#78b827" d="M 53.5,43.5 C 53.4142,44.4959 53.7476,45.3292 54.5,46C 49.3572,49.5941 47.6905,54.4274 49.5,60.5C 48.0222,60.762 46.6888,60.4287 45.5,59.5C 46.3507,56.4223 47.3507,53.4223 48.5,50.5C 49.7859,47.883 51.4525,45.5496 53.5,43.5 Z"/></g>
<g><path style="opacity:1" fill="#7bc028" d="M 35.5,58.5 C 36.7434,57.2625 37.7434,57.5959 38.5,59.5C 38.1667,59.8333 37.8333,60.1667 37.5,60.5C 36.8182,59.7573 36.1515,59.0906 35.5,58.5 Z"/></g>
<g><path style="opacity:1" fill="#688e23" d="M 60.5,54.5 C 61.65,56.2667 60.9833,57.4334 58.5,58C 56.7412,58.7975 55.0745,58.6309 53.5,57.5C 56.2167,57.026 58.5501,56.026 60.5,54.5 Z"/></g>
<g><path style="opacity:1" fill="#7abe28" d="M 81.5,57.5 C 82.8333,57.5 84.1667,57.5 85.5,57.5C 85.747,60.505 84.747,63.005 82.5,65C 78.5449,67.7079 74.2116,69.5412 69.5,70.5C 67.9334,70.523 66.6001,70.023 65.5,69C 66.8742,66.4171 68.3742,63.9171 70,61.5C 70.7246,63.9494 71.7246,66.2827 73,68.5C 73.383,65.5274 72.883,62.694 71.5,60C 72.1079,59.1301 72.9412,58.6301 74,58.5C 75.9626,59.6254 77.796,60.9587 79.5,62.5C 79.8333,62.3333 80.1667,62.1667 80.5,62C 79.5,61 78.5,60 77.5,59C 79.0581,58.79 80.3915,58.29 81.5,57.5 Z"/></g>
<g><path style="opacity:1" fill="#79bb27" d="M 41.5,57.5 C 41.5,57.8333 41.5,58.1667 41.5,58.5C 42.463,59.3635 42.463,60.0302 41.5,60.5C 38.9882,59.2162 38.9882,58.2162 41.5,57.5 Z"/></g>
<g><path style="opacity:1" fill="#7bc028" d="M 64.5,53.5 C 65.9746,55.4095 67.9746,56.5762 70.5,57C 67.9938,58.2985 65.3272,59.2985 62.5,60C 64.5,60.3333 66.5,60.6667 68.5,61C 67.1258,63.5829 65.6258,66.0829 64,68.5C 59.434,63.4397 59.6006,58.4397 64.5,53.5 Z"/></g>
<g><path style="opacity:0.751" fill="#3b1f16" d="M 113.5,38.5 C 114.857,39.5903 115.857,40.9236 116.5,42.5C 116.5,45.5 116.5,48.5 116.5,51.5C 114.744,55.0928 112.077,57.9262 108.5,60C 109.928,68.8324 109.762,77.6657 108,86.5C 106.269,88.6166 104.102,90.1166 101.5,91C 71.5,91.6667 41.5,91.6667 11.5,91C 8.08705,89.9226 5.58705,87.7559 4,84.5C 2.30376,77.055 2.13709,69.7216 3.5,62.5C 3.83333,62.5 4.16667,62.5 4.5,62.5C 4.33375,69.175 4.50042,75.8417 5,82.5C 6.12173,84.6238 7.62173,86.4571 9.5,88C 25.0776,89.1523 40.7442,89.6523 56.5,89.5C 72.2558,89.6523 87.9224,89.1523 103.5,88C 105.617,86.2691 107.117,84.1024 108,81.5C 108.79,75.0853 108.624,68.752 107.5,62.5C 103.5,61.8333 99.5,61.1667 95.5,60.5C 109.684,60.9901 115.684,54.3234 113.5,40.5C 113.5,39.8333 113.5,39.1667 113.5,38.5 Z"/></g>
<g><path style="opacity:1" fill="#f9f689" d="M 4.5,62.5 C 22.8333,62.5 41.1667,62.5 59.5,62.5C 59.1459,65.4206 60.1459,67.7539 62.5,69.5C 71.4463,72.8579 79.1129,70.8579 85.5,63.5C 92.8032,62.5027 100.137,62.1694 107.5,62.5C 108.624,68.752 108.79,75.0853 108,81.5C 107.117,84.1024 105.617,86.2691 103.5,88C 87.9224,89.1523 72.2558,89.6523 56.5,89.5C 40.7442,89.6523 25.0776,89.1523 9.5,88C 7.62173,86.4571 6.12173,84.6238 5,82.5C 4.50042,75.8417 4.33375,69.175 4.5,62.5 Z"/></g>
<g><path style="opacity:0.875" fill="#f1f4f1" d="M 10.5,96.5 C 14.9113,96.021 19.078,96.6876 23,98.5C 23.9357,101.792 23.4357,104.792 21.5,107.5C 22.373,109.413 23.373,111.247 24.5,113C 20.6158,114.006 18.2825,112.506 17.5,108.5C 16.675,107.614 15.675,107.281 14.5,107.5C 14.5,109.5 14.5,111.5 14.5,113.5C 13.1667,113.5 11.8333,113.5 10.5,113.5C 10.5,107.833 10.5,102.167 10.5,96.5 Z M 14.5,99.5 C 18.3428,99.1908 19.6761,100.691 18.5,104C 17.2068,104.49 15.8734,104.657 14.5,104.5C 14.5,102.833 14.5,101.167 14.5,99.5 Z"/></g>
<g><path style="opacity:0.888" fill="#f1f4f2" d="M 25.5,96.5 C 29.5,96.5 33.5,96.5 37.5,96.5C 37.5,97.5 37.5,98.5 37.5,99.5C 34.8333,99.5 32.1667,99.5 29.5,99.5C 29.5,100.833 29.5,102.167 29.5,103.5C 32.1667,103.5 34.8333,103.5 37.5,103.5C 37.5,104.5 37.5,105.5 37.5,106.5C 34.8333,106.5 32.1667,106.5 29.5,106.5C 29.5,107.833 29.5,109.167 29.5,110.5C 32.1667,110.5 34.8333,110.5 37.5,110.5C 37.5,111.5 37.5,112.5 37.5,113.5C 33.5,113.5 29.5,113.5 25.5,113.5C 25.5,107.833 25.5,102.167 25.5,96.5 Z"/></g>
<g><path style="opacity:0.833" fill="#f1f5f2" d="M 39.5,96.5 C 41.288,96.2148 42.9547,96.5481 44.5,97.5C 45.903,100.875 47.403,104.209 49,107.5C 50.3333,104.167 51.6667,100.833 53,97.5C 54.6995,96.5939 56.5328,96.2606 58.5,96.5C 58.5,102.167 58.5,107.833 58.5,113.5C 57.1667,113.5 55.8333,113.5 54.5,113.5C 55.065,102.15 53.8983,101.816 51,112.5C 49.6439,113.38 48.1439,113.714 46.5,113.5C 44.2829,103.116 43.2829,103.116 43.5,113.5C 42.1667,113.5 40.8333,113.5 39.5,113.5C 39.5,107.833 39.5,102.167 39.5,96.5 Z"/></g>
<g><path style="opacity:0.801" fill="#f1f4f1" d="M 60.5,96.5 C 63.8499,96.335 67.1832,96.5017 70.5,97C 75.8233,104.426 73.8233,108.259 64.5,108.5C 64.5,110.167 64.5,111.833 64.5,113.5C 63.1667,113.5 61.8333,113.5 60.5,113.5C 60.5,107.833 60.5,102.167 60.5,96.5 Z M 64.5,99.5 C 67.9978,99.4784 69.3311,100.978 68.5,104C 67.2068,104.49 65.8734,104.657 64.5,104.5C 64.5,102.833 64.5,101.167 64.5,99.5 Z"/></g>
<g><path style="opacity:0.889" fill="#f0f5f2" d="M 75.5,96.5 C 76.8333,96.5 78.1667,96.5 79.5,96.5C 79.5,101.167 79.5,105.833 79.5,110.5C 81.8333,110.5 84.1667,110.5 86.5,110.5C 86.5,111.5 86.5,112.5 86.5,113.5C 82.8333,113.5 79.1667,113.5 75.5,113.5C 75.5,107.833 75.5,102.167 75.5,96.5 Z"/></g>
<g><path style="opacity:0.875" fill="#f1f4f1" d="M 87.5,96.5 C 91.9113,96.021 96.078,96.6876 100,98.5C 100.936,101.792 100.436,104.792 98.5,107.5C 99.373,109.413 100.373,111.247 101.5,113C 97.6158,114.006 95.2825,112.506 94.5,108.5C 93.675,107.614 92.675,107.281 91.5,107.5C 91.5,109.5 91.5,111.5 91.5,113.5C 90.1667,113.5 88.8333,113.5 87.5,113.5C 87.5,107.833 87.5,102.167 87.5,96.5 Z M 91.5,99.5 C 95.3428,99.1908 96.6761,100.691 95.5,104C 94.2068,104.49 92.8734,104.657 91.5,104.5C 91.5,102.833 91.5,101.167 91.5,99.5 Z"/></g>
</svg>
